<svg width="175" height="64" viewBox="0 0 175 64" fill="none" xmlns="http://www.w3.org/2000/svg">
<line x1="23.4749" y1="13.5234" x2="60.4749" y2="50.5234" stroke="#D74E00" stroke-width="7"/>
<line x1="12.4749" y1="24.5234" x2="49.4749" y2="61.5234" stroke="#D74E00" stroke-width="7"/>
<line x1="34.4749" y1="2.52342" x2="50.4749" y2="18.5234" stroke="#D74E00" stroke-width="7"/>
<line x1="56.4749" y1="24.5234" x2="72.4749" y2="40.5234" stroke="#D74E00" stroke-width="7"/>
<line x1="23.5251" y1="18.5234" x2="38.5251" y2="3.52342" stroke="#D74E00" stroke-width="7"/>
<line x1="2.52513" y1="39.5234" x2="17.5251" y2="24.5234" stroke="#D74E00" stroke-width="7"/>
<line x1="13.5251" y1="50.5234" x2="50.5251" y2="13.5234" stroke="#D74E00" stroke-width="7"/>
<line x1="24.5251" y1="61.5234" x2="60.5251" y2="25.5234" stroke="#D74E00" stroke-width="7"/>
<path d="M105.055 17.6983V30.9983H103.706V20.3583L98.481 29.3073H97.816L92.591 20.4153V30.9983H91.242V17.6983H92.401L98.177 27.5593L103.896 17.6983H105.055ZM118.296 21.0043V30.9983H117.004V29.0223C116.599 29.6936 116.06 30.2066 115.389 30.5613C114.73 30.916 113.983 31.0933 113.147 31.0933C112.21 31.0933 111.361 30.878 110.601 30.4473C109.841 30.0166 109.246 29.415 108.815 28.6423C108.384 27.8696 108.169 26.9893 108.169 26.0013C108.169 25.0133 108.384 24.133 108.815 23.3603C109.246 22.5876 109.841 21.9923 110.601 21.5743C111.361 21.1436 112.21 20.9283 113.147 20.9283C113.958 20.9283 114.686 21.0993 115.332 21.4413C115.991 21.7706 116.529 22.2583 116.947 22.9043V21.0043H118.296ZM113.261 29.8963C113.958 29.8963 114.585 29.738 115.142 29.4213C115.712 29.092 116.155 28.6296 116.472 28.0343C116.801 27.439 116.966 26.7613 116.966 26.0013C116.966 25.2413 116.801 24.5636 116.472 23.9683C116.155 23.373 115.712 22.917 115.142 22.6003C114.585 22.271 113.958 22.1063 113.261 22.1063C112.552 22.1063 111.912 22.271 111.342 22.6003C110.785 22.917 110.341 23.373 110.012 23.9683C109.695 24.5636 109.537 25.2413 109.537 26.0013C109.537 26.7613 109.695 27.439 110.012 28.0343C110.341 28.6296 110.785 29.092 111.342 29.4213C111.912 29.738 112.552 29.8963 113.261 29.8963ZM126.689 20.9283C127.664 20.9283 128.532 21.1436 129.292 21.5743C130.052 22.005 130.641 22.6066 131.059 23.3793C131.49 24.152 131.705 25.0323 131.705 26.0203C131.705 27.0083 131.496 27.8886 131.078 28.6613C130.66 29.4213 130.077 30.0166 129.33 30.4473C128.595 30.878 127.753 31.0933 126.803 31.0933C125.967 31.0933 125.22 30.9286 124.561 30.5993C123.915 30.2573 123.389 29.7696 122.984 29.1363V34.6843H121.635V26.0393C121.635 25.0386 121.844 24.152 122.262 23.3793C122.693 22.6066 123.288 22.005 124.048 21.5743C124.821 21.1436 125.701 20.9283 126.689 20.9283ZM126.651 29.9153C127.36 29.9153 128 29.7506 128.57 29.4213C129.14 29.092 129.583 28.6296 129.9 28.0343C130.217 27.439 130.375 26.7676 130.375 26.0203C130.375 25.273 130.217 24.6016 129.9 24.0063C129.583 23.411 129.14 22.9486 128.57 22.6193C128 22.2773 127.36 22.1063 126.651 22.1063C125.942 22.1063 125.302 22.271 124.732 22.6003C124.175 22.9296 123.738 23.392 123.421 23.9873C123.117 24.57 122.965 25.2413 122.965 26.0013C122.965 26.7613 123.117 27.439 123.421 28.0343C123.738 28.6296 124.175 29.092 124.732 29.4213C125.302 29.7506 125.942 29.9153 126.651 29.9153ZM143.412 21.0043V30.9983H142.12V29.1743C141.766 29.7823 141.278 30.2573 140.657 30.5993C140.037 30.9286 139.327 31.0933 138.529 31.0933C137.212 31.0933 136.173 30.7323 135.413 30.0103C134.666 29.2756 134.292 28.2053 134.292 26.7993V21.0043H135.641V26.6663C135.641 27.7176 135.901 28.5156 136.42 29.0603C136.94 29.605 137.687 29.8773 138.662 29.8773C139.714 29.8773 140.543 29.5606 141.151 28.9273C141.759 28.2813 142.063 27.3883 142.063 26.2483V21.0043H143.412ZM146.472 25.2603H151.45V26.4383H146.472V25.2603ZM105.055 40.6983V53.9983H103.706V43.3583L98.481 52.3073H97.816L92.591 43.4153V53.9983H91.242V40.6983H92.401L98.177 50.5593L103.896 40.6983H105.055ZM118.296 44.0043V53.9983H117.004V52.0223C116.599 52.6936 116.06 53.2066 115.389 53.5613C114.73 53.916 113.983 54.0933 113.147 54.0933C112.21 54.0933 111.361 53.878 110.601 53.4473C109.841 53.0166 109.246 52.415 108.815 51.6423C108.384 50.8696 108.169 49.9893 108.169 49.0013C108.169 48.0133 108.384 47.133 108.815 46.3603C109.246 45.5876 109.841 44.9923 110.601 44.5743C111.361 44.1436 112.21 43.9283 113.147 43.9283C113.958 43.9283 114.686 44.0993 115.332 44.4413C115.991 44.7706 116.529 45.2583 116.947 45.9043V44.0043H118.296ZM113.261 52.8963C113.958 52.8963 114.585 52.738 115.142 52.4213C115.712 52.092 116.155 51.6296 116.472 51.0343C116.801 50.439 116.966 49.7613 116.966 49.0013C116.966 48.2413 116.801 47.5636 116.472 46.9683C116.155 46.373 115.712 45.917 115.142 45.6003C114.585 45.271 113.958 45.1063 113.261 45.1063C112.552 45.1063 111.912 45.271 111.342 45.6003C110.785 45.917 110.341 46.373 110.012 46.9683C109.695 47.5636 109.537 48.2413 109.537 49.0013C109.537 49.7613 109.695 50.439 110.012 51.0343C110.341 51.6296 110.785 52.092 111.342 52.4213C111.912 52.738 112.552 52.8963 113.261 52.8963ZM126.689 43.9283C127.664 43.9283 128.532 44.1436 129.292 44.5743C130.052 45.005 130.641 45.6066 131.059 46.3793C131.49 47.152 131.705 48.0323 131.705 49.0203C131.705 50.0083 131.496 50.8886 131.078 51.6613C130.66 52.4213 130.077 53.0166 129.33 53.4473C128.595 53.878 127.753 54.0933 126.803 54.0933C125.967 54.0933 125.22 53.9286 124.561 53.5993C123.915 53.2573 123.389 52.7696 122.984 52.1363V57.6843H121.635V49.0393C121.635 48.0386 121.844 47.152 122.262 46.3793C122.693 45.6066 123.288 45.005 124.048 44.5743C124.821 44.1436 125.701 43.9283 126.689 43.9283ZM126.651 52.9153C127.36 52.9153 128 52.7506 128.57 52.4213C129.14 52.092 129.583 51.6296 129.9 51.0343C130.217 50.439 130.375 49.7676 130.375 49.0203C130.375 48.273 130.217 47.6016 129.9 47.0063C129.583 46.411 129.14 45.9486 128.57 45.6193C128 45.2773 127.36 45.1063 126.651 45.1063C125.942 45.1063 125.302 45.271 124.732 45.6003C124.175 45.9296 123.738 46.392 123.421 46.9873C123.117 47.57 122.965 48.2413 122.965 49.0013C122.965 49.7613 123.117 50.439 123.421 51.0343C123.738 51.6296 124.175 52.092 124.732 52.4213C125.302 52.7506 125.942 52.9153 126.651 52.9153ZM138.244 49.5523H135.964V53.9983H134.615V44.0043H135.964V48.3933H138.263L141.778 44.0043H143.241L139.308 48.8493L143.526 53.9983H141.93L138.244 49.5523ZM149.54 52.8963C150.16 52.8963 150.73 52.7886 151.25 52.5733C151.782 52.3453 152.231 52.016 152.599 51.5853L153.359 52.4593C152.915 52.9913 152.364 53.3966 151.706 53.6753C151.047 53.954 150.319 54.0933 149.521 54.0933C148.495 54.0933 147.583 53.878 146.785 53.4473C145.987 53.004 145.366 52.396 144.923 51.6233C144.479 50.8506 144.258 49.9766 144.258 49.0013C144.258 48.026 144.467 47.152 144.885 46.3793C145.315 45.6066 145.904 45.005 146.652 44.5743C147.399 44.1436 148.248 43.9283 149.198 43.9283C150.084 43.9283 150.882 44.131 151.592 44.5363C152.314 44.9416 152.884 45.5053 153.302 46.2273C153.732 46.9493 153.96 47.7726 153.986 48.6973L145.778 50.2933C146.031 51.104 146.487 51.7436 147.146 52.2123C147.817 52.6683 148.615 52.8963 149.54 52.8963ZM149.198 45.0873C148.501 45.0873 147.874 45.252 147.317 45.5813C146.772 45.898 146.341 46.3476 146.025 46.9303C145.721 47.5003 145.569 48.159 145.569 48.9063C145.569 49.0963 145.575 49.2356 145.588 49.3243L152.637 47.9563C152.485 47.1203 152.098 46.4363 151.478 45.9043C150.857 45.3596 150.097 45.0873 149.198 45.0873ZM169.234 43.9283C170.488 43.9283 171.469 44.2893 172.179 45.0113C172.901 45.7333 173.262 46.7973 173.262 48.2033V53.9983H171.913V48.3363C171.913 47.2976 171.659 46.506 171.153 45.9613C170.659 45.4166 169.956 45.1443 169.044 45.1443C168.005 45.1443 167.188 45.4673 166.593 46.1133C165.997 46.7466 165.7 47.627 165.7 48.7543V53.9983H164.351V48.3363C164.351 47.2976 164.097 46.506 163.591 45.9613C163.097 45.4166 162.387 45.1443 161.463 45.1443C160.437 45.1443 159.62 45.4673 159.012 46.1133C158.416 46.7466 158.119 47.627 158.119 48.7543V53.9983H156.77V44.0043H158.062V45.8283C158.416 45.2203 158.91 44.7516 159.544 44.4223C160.177 44.093 160.905 43.9283 161.729 43.9283C162.565 43.9283 163.287 44.1056 163.895 44.4603C164.515 44.815 164.978 45.3406 165.282 46.0373C165.649 45.3786 166.175 44.8656 166.859 44.4983C167.555 44.1183 168.347 43.9283 169.234 43.9283Z" fill="white"/>
</svg>
